PathFileType	4	(X/Y/Z)	C:\Users\Biomechanik\SynologyDrive\AlexP\Athlete_03\Athlete_3_25_03_31\Deadlift_bw_02\marker_experimental.trc
DataRate	CameraRate	NumFrames	NumMarkers	Units	OrigDataRate	OrigDataStartFrame	OrigNumFrames
200.000000	200.000000	4	55	mm	200.000000	902	1804
Frame#	Time	BL			BR			GLAB			RFHD			LFHD			C7			T6			SPINMOL			SPINM2			SPINM3			T12			BELTOL			BELT2			BELT3			SACROL			SACR2			SACR3			LTHOL			LTH2			LTH3			LSHAOL			LSHA2			LSHA3			LHEE			LTOE			LM5			RTHOL			RTH2			RTH3			RSHAOL			RSHA2			RSHA3			RHEE			RTOE			RM5			STRN			XIPH			LACR			LUAOL			LUA2			LUA3			LLAOL			LLA2			LLA3			LWRR			LWRU			RACR			RUAOL			RUA2			RUA3			RLAOL			RLA2			RLA3			RWRR			RWRU			
		X1	Y1	Z1	X2	Y2	Z2	X3	Y3	Z3	X4	Y4	Z4	X5	Y5	Z5	X6	Y6	Z6	X7	Y7	Z7	X8	Y8	Z8	X9	Y9	Z9	X10	Y10	Z10	X11	Y11	Z11	X12	Y12	Z12	X13	Y13	Z13	X14	Y14	Z14	X15	Y15	Z15	X16	Y16	Z16	X17	Y17	Z17	X18	Y18	Z18	X19	Y19	Z19	X20	Y20	Z20	X21	Y21	Z21	X22	Y22	Z22	X23	Y23	Z23	X24	Y24	Z24	X25	Y25	Z25	X26	Y26	Z26	X27	Y27	Z27	X28	Y28	Z28	X29	Y29	Z29	X30	Y30	Z30	X31	Y31	Z31	X32	Y32	Z32	X33	Y33	Z33	X34	Y34	Z34	X35	Y35	Z35	X36	Y36	Z36	X37	Y37	Z37	X38	Y38	Z38	X39	Y39	Z39	X40	Y40	Z40	X41	Y41	Z41	X42	Y42	Z42	X43	Y43	Z43	X44	Y44	Z44	X45	Y45	Z45	X46	Y46	Z46	X47	Y47	Z47	X48	Y48	Z48	X49	Y49	Z49	X50	Y50	Z50	X51	Y51	Z51	X52	Y52	Z52	X53	Y53	Z53	X54	Y54	Z54	X55	Y55	Z55	

903	4.51	1214.243774414062	39.25094223022475	-2269.23046875	1226.854858398438	29.82563591003419	-248.8333282470703	321.3517150878906	1631.35986328125	-1198.522338867188	267.7049560546875	1649.169311523438	-1135.60498046875	273.7851257324219	1646.535400390625	-1270.5185546875	118.4611053466797	1439.23974609375	-1205.9892578125	87.73028564453125	1261.502319335938	-1213.528930664062	87.97180938720703	1226.758544921875	-1235.57861328125	84.29895782470703	1216.887329101562	-1186.192016601562	98.19310760498047	1162.7373046875	-1222.041259765625	112.427848815918	1110.01318359375	-1220.146362304688	87.6881103515625	1086.190795898438	-1235.634521484375	88.34934997558594	1082.367431640625	-1185.499755859375	80.98393249511719	1023.161376953125	-1215.808715820312	82.60055541992188	961.8535156250001	-1238.88037109375	84.31224822998047	958.4797363281251	-1187.58056640625	59.43198013305664	903.9606323242189	-1215.76513671875	169.5076751708984	685.0650634765626	-1405.344116210938	119.2134704589844	632.9921264648439	-1372.24951171875	165.4080505371094	625.3838500976564	-1390.669799804688	141.4535064697266	328.1970520019532	-1405.472045898438	93.11241912841797	265.6358642578126	-1394.439575195312	142.5312805175781	266.4296264648439	-1402.127563476562	76.51218414306641	68.97364044189462	-1319.411743164062	293.5211181640625	48.70929718017586	-1332.494750976562	242.2390289306641	28.90561485290536	-1432.019775390625	157.5069732666016	698.4118041992189	-1027.473266601562	210.5642700195312	639.9544067382814	-1016.394409179688	163.9513549804688	637.1771240234376	-1033.660766601562	125.2342147827148	345.7009277343751	-1018.491577148438	157.3154296875	273.8980712890626	-1013.386901855469	111.3826675415039	285.1102600097657	-1028.344604492188	75.68096160888672	62.48560714721687	-1114.495971679688	289.3760986328125	48.14483261108405	-1102.048828125	236.8976898193359	38.74910354614264	-1002.337585449219	300.066650390625	1363.319458007812	-1208.838745117188	345.8496398925781	1230.458740234375	-1209.02880859375	218.0003662109375	1401.329223632812	-1386.252319335938	268.8204345703125	1247.36328125	-1487.19091796875	274.5508422851562	1186.045166015625	-1509.731811523438	306.03076171875	1196.708618164062	-1469.983520507812	331.0274047851562	982.4974975585939	-1504.748046875	293.8288879394531	916.0458984375001	-1526.397583007812	337.7968139648438	920.4641113281251	-1502.129272460938	352.3148803710938	812.9631347656251	-1493.066772460938	340.388671875	821.3642578125001	-1416.211181640625	228.0133819580078	1399.929077148438	-1035.305419921875	256.4040222167969	1243.182495117188	-939.8706054687499	289.1301879882812	1185.177124023438	-946.7109985351561	246.4879608154297	1182.078369140625	-915.6215820312499	303.7556762695312	960.9622802734375	-923.3065795898436	363.1754455566406	909.9474487304689	-937.28662109375	314.6155090332031	899.3742675781251	-930.5535278320312	351.5179138183594	815.2603149414064	-948.7053833007812	347.158935546875	812.3811645507814	-1027.242919921875	
904	4.515	1214.244262695312	39.25125122070327	-2269.2314453125	1226.854858398438	29.82525634765626	-248.8332214355469	321.3930358886719	1631.365844726562	-1198.527954101562	267.746826171875	1649.175415039062	-1135.607299804688	273.8194274902344	1646.533447265625	-1270.521606445312	118.5009307861328	1439.240356445312	-1205.982543945312	87.76326751708984	1261.507568359375	-1213.526000976562	88.00174713134766	1226.762939453125	-1235.57568359375	84.32948303222656	1216.89111328125	-1186.18896484375	98.22325897216797	1162.742431640625	-1222.037841796875	112.4579696655273	1110.02197265625	-1220.145874023438	87.6912841796875	1086.191162109375	-1235.64697265625	88.37368774414062	1082.377075195312	-1185.503784179688	80.98318481445312	1023.166931152344	-1215.825439453125	82.61453247070312	961.8611450195314	-1238.885986328125	84.32250213623047	958.4866333007814	-1187.582275390625	59.44781494140625	903.9637451171876	-1215.775756835938	169.5358734130859	685.0653076171876	-1405.325073242188	119.2360687255859	632.9938964843751	-1372.227416992188	165.4309844970703	625.3828125000001	-1390.666259765625	141.4608154296875	328.1976623535157	-1405.468627929688	93.12027740478516	265.6351318359376	-1394.435546875	142.5384216308594	266.4273376464845	-1402.12548828125	76.51165771484375	68.97255706787118	-1319.4111328125	293.5208435058594	48.70931625366219	-1332.493530273438	242.2402801513672	28.90398979187021	-1432.018188476562	157.5040893554688	698.4109497070314	-1027.477172851562	210.5586242675781	639.9545898437501	-1016.389953613281	163.9485778808594	637.1762084960939	-1033.662109375	125.2317886352539	345.7000427246094	-1018.493041992188	157.3122711181641	273.8979492187501	-1013.383972167969	111.3810806274414	285.1098632812501	-1028.346801757812	75.68448638916016	62.48348236083991	-1114.498046875	289.3756713867188	48.14494323730475	-1102.049072265625	236.9027099609375	38.74806594848639	-1002.337585449219	300.0979919433594	1363.314208984375	-1208.835571289062	345.8773803710938	1230.453857421875	-1209.023681640625	218.0293731689453	1401.32861328125	-1386.247436523438	268.836181640625	1247.342163085938	-1487.166137695312	274.5722351074219	1186.037231445312	-1509.73876953125	306.0706176757812	1196.696044921875	-1469.955810546875	331.0656127929688	982.5058593750001	-1504.754760742188	293.8567810058594	916.0407714843751	-1526.379028320312	337.8237915039062	920.4661254882814	-1502.125854492188	352.345458984375	812.9603271484376	-1493.061767578125	340.4305725097656	821.3629760742189	-1416.196166992188	228.0473022460938	1399.9248046875	-1035.302978515625	256.43505859375	1243.172973632812	-939.8831787109374	289.1669311523438	1185.167846679688	-946.7194824218749	246.5229797363281	1182.066772460938	-915.6364135742186	303.7825927734375	960.9501342773438	-923.3002319335936	363.2134094238281	909.9523315429689	-937.30322265625	314.6455383300781	899.3648071289064	-930.5667724609375	351.5448608398438	815.2498779296876	-948.7255249023438	347.1834106445312	812.3730468750001	-1027.2607421875	
905	4.52	1214.24462890625	39.2514801025392	-2269.232177734375	1226.855102539062	29.82496261596681	-248.8334503173828	321.4346923828125	1631.37158203125	-1198.534545898438	267.7896423339844	1649.181640625	-1135.609008789062	273.8529968261719	1646.530883789062	-1270.524169921875	118.540885925293	1439.239379882812	-1205.974487304688	87.79573822021484	1261.512329101562	-1213.5224609375	88.03146362304688	1226.76708984375	-1235.572509765625	84.36019134521484	1216.894653320312	-1186.185791015625	98.25353240966797	1162.747314453125	-1222.034301757812	112.4882659912109	1110.030639648438	-1220.14599609375	87.69231414794922	1086.19140625	-1235.661254882812	88.39808654785156	1082.387084960938	-1185.508666992188	80.98096466064453	1023.17236328125	-1215.843627929688	82.62953948974609	961.8695068359376	-1238.892333984375	84.33340454101562	958.4934082031251	-1187.5849609375	59.46260452270508	903.9669799804689	-1215.78857421875	169.5648651123047	685.0673828125001	-1405.308349609375	119.2606506347656	632.9954833984376	-1372.20263671875	165.4557342529297	625.3813476562501	-1390.663696289062	141.4689483642578	328.1986694335939	-1405.465454101562	93.12926483154297	265.6343383789064	-1394.432250976562	142.5468292236328	266.4249877929689	-1402.123657226562	76.51113128662109	68.97166442871102	-1319.410766601562	293.5205993652344	48.70946884155281	-1332.492553710938	242.2410278320312	28.90327835083017	-1432.016845703125	157.5015411376953	698.4099731445314	-1027.479736328125	210.5537109375	639.9544677734376	-1016.384826660156	163.9466247558594	637.1751708984376	-1033.661865234375	125.2301940917969	345.6990966796876	-1018.493225097656	157.3097381591797	273.8975219726563	-1013.38037109375	111.3799896240234	285.1094665527344	-1028.347778320312	75.68867492675781	62.48067092895515	-1114.500244140625	289.3752136230469	48.14509201049811	-1102.049194335938	236.9082183837891	38.74590682983405	-1002.338439941406	300.1283874511719	1363.3095703125	-1208.831298828125	345.905029296875	1230.448974609375	-1209.017211914062	218.0582733154297	1401.328735351562	-1386.2412109375	268.8530578613281	1247.325927734375	-1487.145385742188	274.5940856933594	1186.031860351562	-1509.744995117188	306.1088256835938	1196.684814453125	-1469.93017578125	331.1036071777344	982.5160522460939	-1504.763549804688	293.8837890625	916.0368652343751	-1526.361938476562	337.85009765625	920.4697875976564	-1502.124877929688	352.3740234375	812.9594726562501	-1493.06005859375	340.4706115722656	821.3620605468751	-1416.183959960938	228.0808258056641	1399.920288085938	-1035.299682617188	256.4640197753906	1243.164428710938	-939.8924560546874	289.2005310058594	1185.160400390625	-946.7238769531249	246.5532836914062	1182.055419921875	-915.6470947265624	303.8065185546875	960.9376831054688	-923.2935180664061	363.2476196289062	909.9539184570314	-937.31884765625	314.6730346679688	899.3550415039064	-930.5804443359375	351.5691833496094	815.2392578125001	-948.7459716796875	347.2077941894531	812.3670043945314	-1027.279907226562	
906	4.525	1214.244873046875	39.25165557861342	-2269.232666015625	1226.855346679688	29.82477378845216	-248.8339996337891	321.4765014648438	1631.376953125	-1198.541870117188	267.8332824707031	1649.187866210938	-1135.609985351562	273.8858642578125	1646.527587890625	-1270.526489257812	118.5808715820312	1439.236450195312	-1205.965209960938	87.82750701904297	1261.516357421875	-1213.5185546875	88.06092834472656	1226.770874023438	-1235.569213867188	84.39094543457031	1216.897827148438	-1186.182373046875	98.28384399414062	1162.751831054688	-1222.030517578125	112.518684387207	1110.0390625	-1220.146240234375	87.691650390625	1086.19140625	-1235.67724609375	88.42258453369141	1082.39697265625	-1185.51416015625	80.97834777832031	1023.177551269531	-1215.8623046875	82.64566040039062	961.8782958984376	-1238.899536132812	84.34511566162109	958.5000000000001	-1187.588623046875	59.47619247436523	903.9703979492189	-1215.803466796875	169.5945129394531	685.0714721679689	-1405.294799804688	119.2873840332031	632.9967651367189	-1372.174926757812	165.4824676513672	625.3795166015626	-1390.662231445312	141.4782867431641	328.2000732421876	-1405.462890625	93.1396484375	265.6336059570314	-1394.429565429688	142.5567932128906	266.4226379394532	-1402.122436523438	76.51062774658203	68.97100830078134	-1319.41064453125	293.5202941894531	48.70977401733406	-1332.491577148438	242.2411804199219	28.90369033813485	-1432.01611328125	157.4994812011719	698.4089965820314	-1027.480834960938	210.5496520996094	639.9541015625001	-1016.378967285156	163.945556640625	637.1740112304689	-1033.660034179688	125.2294387817383	345.6981811523438	-1018.492004394531	157.307861328125	273.8968811035157	-1013.376037597656	111.3794021606445	285.1090698242188	-1028.34716796875	75.69395446777344	62.47686004638679	-1114.502807617188	289.3747253417969	48.14531707763678	-1102.04931640625	236.9140319824219	38.74256515502936	-1002.340270996094	300.1576538085938	1363.3056640625	-1208.826049804688	345.9322814941406	1230.444091796875	-1209.009521484375	218.0871276855469	1401.329223632812	-1386.233642578125	268.8712158203125	1247.314453125	-1487.128662109375	274.61669921875	1186.029052734375	-1509.750244140625	306.1455383300781	1196.674926757812	-1469.906860351562	331.1410827636719	982.5274047851564	-1504.774047851562	293.9098815917969	916.0340576171876	-1526.346313476562	337.8757934570312	920.4749755859376	-1502.12646484375	352.4007263183594	812.9603271484376	-1493.061401367188	340.5084228515625	821.3614501953126	-1416.174926757812	228.1137390136719	1399.915649414062	-1035.29541015625	256.4909057617188	1243.156616210938	-939.8984374999999	289.2311096191406	1185.154296875	-946.7243652343749	246.5788421630859	1182.044067382812	-915.6533813476561	303.8278198242188	960.9249877929688	-923.2864990234374	363.2782287597656	909.9522094726564	-937.33349609375	314.6982727050781	899.3449096679689	-930.5945434570312	351.5911865234375	815.2286376953126	-948.7667236328125	347.2319641113281	812.3629150390626	-1027.30029296875	
